<?xml version="1.0" ?><svg height="24px" version="1.1" viewBox="0 0 24 24" width="24px" xmlns="http://www.w3.org/2000/svg" xmlns:sketch="http://www.bohemiancoding.com/sketch/ns" xmlns:xlink="http://www.w3.org/1999/xlink"><title/><desc/><defs/><g fill="none" fill-rule="evenodd" id="miu" stroke="none" stroke-width="1"><g id="Artboard-1" transform="translate(-575.000000, -659.000000)"><g id="slice" transform="translate(215.000000, 119.000000)"/><path d="M580.5,671.5 L580.5,670.5 L593.5,670.5 L593.5,671.5 L580.5,671.5 Z M587,682 C593.075133,682 598,677.075133 598,671 C598,664.924867 593.075133,660 587,660 C580.924867,660 576,664.924867 576,671 C576,677.075133 580.924867,682 587,682 L587,682 Z M587,681 C592.522848,681 597,676.522848 597,671 C597,665.477152 592.522848,661 587,661 C581.477152,661 577,665.477152 577,671 C577,676.522848 581.477152,681 587,681 L587,681 Z" fill="#000000" id="circle-minus-plus-outline-stroke"/></g></g></svg>